<svg width="256" height="256" xmlns="http://www.w3.org/2000/svg" fill="none">
 <g>
  <title>Layer 1</title>
  <g stroke="null" id="svg_11">
   <g stroke="null" id="svg_12">
    <title stroke="null">Layer 1</title>
    <path stroke="null" id="svg_15" fill="#2A2941" d="m84.52118,106.37062c-5.13544,-1.13744 -9.98652,-3.69771 -13.69674,-7.67982c-3.70911,-3.6989 -6.27741,-8.53405 -7.41939,-13.65469c-1.14086,-5.12064 -0.85648,-10.52454 0.85648,-15.36081c1.71184,-4.83626 4.85108,-9.38711 9.13116,-12.51615c3.9946,-3.41341 9.13116,-5.40502 14.26773,-5.9737c5.13656,-0.56868 10.55862,0.28438 15.40968,2.56037c4.85108,2.27487 8.84566,5.9737 11.69948,10.24017c2.85382,4.55196 4.28009,9.67141 4.28009,14.79205c0,4.83626 -1.14086,9.67141 -3.70911,13.93899l46.79783,-20.48145l53.07637,126.8696l-128.12533,55.75496l-20.25965,-49.21258c-1.42747,5.12064 -4.28121,9.6726 -8.27587,13.37033c-3.9946,3.69771 -8.84566,5.9737 -13.98224,6.82676c-5.13656,0.85306 -10.55862,0.28438 -15.69518,-1.42174c-4.85108,-1.99161 -9.41665,-5.12064 -12.55477,-9.38711c-3.13924,-4.26758 -5.13656,-9.38822 -5.70754,-14.50775c-0.57099,-5.40502 0.57099,-10.52566 2.85382,-15.36081c2.28283,-4.83626 5.99192,-8.81835 10.55751,-11.37872c4.5667,-2.84465 9.70214,-4.26758 15.12419,-4.26758c4.56559,0 9.13116,1.13855 13.41244,3.41341l-18.2635,-44.37513l50.22255,-22.18868l0,0.00007l-0.00002,0z" clip-rule="evenodd" fill-rule="evenodd"/>
    <path stroke="null" id="svg_14" fill="#FFB800" d="m99.0755,70.24406c-5.13656,-1.13855 -9.98764,-3.6989 -13.69793,-7.68101c-3.70911,-3.69771 -6.27741,-8.53405 -7.41939,-13.65469c-1.14086,-5.11953 -0.85536,-10.52454 0.85648,-15.36081c1.71184,-4.83515 4.85108,-9.38711 9.13116,-12.51615c3.9946,-3.41341 9.13116,-5.40502 14.26773,-5.9737c5.13656,-0.56868 10.55862,0.28438 15.40968,2.56037c4.85108,2.27599 8.84566,5.9737 11.69948,10.24017c2.85382,4.55196 4.28009,9.6726 4.28009,14.79205c0,4.55196 -1.42635,9.10273 -3.70911,13.37033l46.51345,-20.48145l53.07637,126.8696l-128.12533,55.75496l-20.83175,-48.64271c-1.99734,5.68932 -5.70643,10.52454 -10.55751,14.22225c-4.85108,3.41452 -10.84412,5.40502 -16.83603,5.40502c-7.41939,0 -14.55322,-2.84465 -19.68978,-8.24855c-5.13656,-5.12064 -8.27587,-12.23289 -8.27587,-19.62839c0,-7.39551 2.85382,-14.50775 8.27587,-19.62839c5.42093,-5.11953 12.27047,-8.24855 19.68978,-8.24855c4.56559,0 9.13116,1.13744 13.41125,3.41341l-18.2635,-44.37625l50.79473,-22.18756l0.00015,0.00007l-0.00002,-0.00002z" clip-rule="evenodd" fill-rule="evenodd"/>
    <path stroke="null" id="svg_13" fill="#2A2941" d="m43.42971,119.45322c-5.99192,1.42293 -11.69948,3.9832 -16.83603,7.96531c-4.85108,3.69771 -8.84566,8.53405 -11.69948,14.22337c-2.85382,5.68932 -4.56559,11.6631 -4.85108,17.9211c-0.28549,6.25808 0.85648,12.51615 3.13924,18.20548c2.28283,5.68932 5.99303,10.80885 10.55862,15.07643c4.56559,4.26647 9.98652,7.39551 15.97955,9.38711c5.99303,1.99161 12.27047,2.56037 18.5478,1.70723c6.27853,-0.85417 12.27047,-2.84465 17.40702,-5.9737l16.83603,40.96178l155.52001,-67.70123l-63.92049,-154.4633l-37.09568,16.21387c-2.56832,-10.24017 -8.84685,-19.05852 -17.40702,-25.31659c-8.84566,-5.9737 -19.40428,-8.53405 -29.96291,-7.39663c-10.55751,1.13855 -20.25965,6.25919 -27.39354,13.93899c-7.13389,7.96531 -11.12961,17.9211 -11.4151,28.44676c0,8.81835 2.56832,17.3513 7.70488,24.46354l-39.94943,17.35242l14.83758,34.988l0,0.00007l0.00002,0zm55.6446,-49.21139c-5.13544,-1.13855 -9.98652,-3.69771 -13.69674,-7.68101c-3.70911,-3.98209 -6.27741,-8.53405 -7.41939,-13.6535c-1.14086,-5.12064 -0.85536,-10.52566 0.85648,-15.36081c1.71184,-4.83626 4.85108,-9.38822 9.13116,-12.51727c3.9946,-3.41341 9.13116,-5.40383 14.26773,-5.9737c5.13656,-0.56868 10.55862,0.28438 15.40968,2.56037c4.85108,2.27599 8.84566,5.9737 11.69948,10.24128c2.85382,4.55077 4.28009,9.67141 4.28009,14.79205c-0.28549,4.55077 -1.42635,9.10273 -3.70911,13.3692l46.51345,-20.48145l53.07637,126.87071l-128.12533,55.75385l-20.83175,-48.64271c-1.99734,5.68932 -5.70643,10.52566 -10.55751,14.22337c-4.85108,3.41341 -10.84412,5.40502 -16.83715,5.40502c-7.4182,0 -14.55322,-2.84465 -19.68866,-8.24967c-5.13656,-5.12064 -8.27587,-12.23178 -8.27587,-19.62839c0,-7.39551 2.85382,-14.50775 8.27587,-19.62727c5.13544,-5.12064 12.27047,-8.24967 19.68866,-8.24967c4.5667,0 9.13227,1.13744 13.41244,3.41341l-18.2635,-44.37625l50.79354,-22.18756l0.00007,0l-0.00002,0z" clip-rule="evenodd" fill-rule="evenodd"/>
   </g>
  </g>
 </g>

</svg>