<svg width="256" height="256" xmlns="http://www.w3.org/2000/svg">
 <g>
  <title>Layer 1</title>
  <g stroke="null">
   <g stroke="null">
    <title stroke="null">Layer 1</title>
    <g stroke="null" id="svg_20">
     <path stroke="null" id="svg_23" fill="#2A2941" d="m141.01248,88.55062c3.50986,0.64766 2.3399,5.44251 2.3399,5.44251l-8.18965,15.16118l-22.48815,-11.40366c1.43006,2.85078 1.81969,5.96116 1.0399,9.071c-0.77979,3.10985 -2.73006,5.70156 -5.32955,7.51608c-2.60001,1.68446 -5.84976,2.46166 -8.96946,1.94353c-3.1197,-0.51814 -5.9798,-2.07358 -7.92956,-4.53525c-2.20985,-2.59171 -3.24975,-5.96116 -2.98964,-9.33007c0.26011,-3.36944 1.81969,-6.47929 4.4197,-8.68241c1.68964,-1.42539 3.76944,-2.33213 6.10934,-2.5912l-20.66845,-10.49641l29.50786,-55.07322l56.80637,28.89749l-7.66945,14.25393c0,0 -3.3798,4.27617 -6.10987,1.29585c-1.43006,-2.07306 -3.1197,-3.75805 -5.06944,-5.18344c-1.43006,-0.90674 -3.1197,-1.55493 -4.80986,-1.94353c-1.68964,-0.25907 -3.50986,-0.25907 -5.1995,0.12953c-1.69016,0.38861 -3.24975,1.16632 -4.67981,2.20312c-1.43006,1.03627 -2.60001,2.33213 -3.50986,3.88705c-0.90985,1.55544 -1.42953,3.2399 -1.68964,4.92437c-0.26011,1.68446 0,3.49897 0.38963,5.18344c0.52021,1.68446 1.29999,3.23939 2.46996,4.53525c1.16995,1.29585 2.46996,2.46219 4.03007,3.2399c2.85959,0.90674 5.58965,1.55493 8.18914,1.55493l0.00002,0.00004l0.00001,0z" clip-rule="evenodd" fill-rule="evenodd"/>
     <path stroke="null" id="svg_22" fill="#4C5EFD" d="m147.64203,72.09306c3.50986,0.64766 2.3399,5.44251 2.3399,5.44251l-8.18965,15.16118l-22.48815,-11.40315c1.0399,2.20259 1.5596,4.53525 1.29999,6.99744c-0.26011,2.33266 -1.16995,4.66478 -2.60001,6.60883c-1.43006,1.94353 -3.50986,3.36893 -5.71971,4.14664c-2.20985,0.7772 -4.67981,1.03627 -7.01919,0.51814c-2.3399,-0.51814 -4.54976,-1.68446 -6.23991,-3.36893c-1.68964,-1.68497 -2.98964,-3.75805 -3.50986,-6.09068c-0.5197,-2.33266 -0.5197,-4.79432 0.26011,-6.99744c0.77979,-2.33266 2.20985,-4.27617 4.02954,-5.8311c1.69016,-1.42539 3.76996,-2.33266 6.10987,-2.59171l-20.66845,-10.49641l29.50786,-55.07269l56.6758,28.89698l-7.66945,14.25393c0,0 -3.3798,4.2767 -6.10934,1.16632c-1.43006,-1.94353 -3.1197,-3.75805 -5.06944,-5.18344c-1.43006,-0.90674 -3.12021,-1.55493 -4.80986,-1.94353c-1.69016,-0.25907 -3.50986,-0.25907 -5.1995,0.12953c-1.69016,0.38861 -3.24975,1.16632 -4.67981,2.20312c-1.43006,1.03678 -2.60001,2.33213 -3.50986,3.88758c-0.90985,1.55493 -1.43006,3.23939 -1.68964,4.92385c-0.26011,1.68446 0,3.49897 0.38963,5.18344c0.39016,1.68446 1.29999,3.23939 2.46996,4.53525c1.16995,1.29585 2.46996,2.46219 4.02954,3.2399c2.60001,1.03627 5.33006,1.68446 8.0596,1.68446l0.00004,-0.00002l0,0z" clip-rule="evenodd" fill-rule="evenodd"/>
     <path stroke="null" id="svg_21" fill="#2A2941" d="m92.65587,75.07338c-2.85959,3.75805 -4.28965,8.55236 -4.02954,13.21713c0.38963,4.79483 2.46943,9.20054 5.84924,12.56998c3.3798,3.36893 7.92956,5.31298 12.73941,5.57203c4.80934,0.25907 9.48916,-1.29585 13.25911,-4.14664c2.98964,-2.59171 5.1995,-6.09068 6.10934,-9.97827l17.80885,8.94148l11.56947,-21.51095l0,-0.90674c0.38963,-2.07358 0.38963,-4.2767 0,-6.47929c-0.39016,-1.68446 -1.29999,-3.2399 -2.60001,-4.53576c-1.29999,-1.16581 -2.98964,-2.07306 -4.67981,-2.33213c-1.16995,0 -2.5995,-0.38912 -3.76944,-0.51865c-0.78032,0 -1.56011,-0.25907 -2.3399,-0.51814c-0.78032,-0.38861 -1.43006,-1.03678 -1.82022,-1.68446c-0.5197,-0.64819 -0.90985,-1.42539 -1.16995,-2.20312c-0.25958,-0.7772 -0.25958,-1.68446 -0.12953,-2.46219c0.12953,-0.7772 0.38963,-1.68446 0.77979,-2.33213c0.38963,-0.77773 1.0399,-1.42539 1.68964,-1.81451c0.65025,-0.51814 1.43006,-0.90674 2.20985,-1.16632c0.78032,-0.25907 1.69016,-0.25907 2.46996,-0.12953c0.77979,0.12953 1.69016,0.38912 2.3399,0.77773c1.68964,0.90726 2.3399,2.59171 3.50986,4.0171c1.42953,1.814 3.50986,2.85078 5.71971,3.23939c2.20985,0.25907 4.54923,-0.25907 6.36945,-1.42539c1.42953,-0.90674 2.72954,-2.07306 3.89949,-3.36893l0.39016,-0.51865l11.04926,-20.60369l-68.50538,-34.469l-35.74777,66.21677l16.50886,8.2938l0.52021,0.25907l-0.00002,0.00002l-0.00001,-0.00001zm54.98616,-2.98032c3.50986,0.64766 2.3399,5.44251 2.3399,5.44251l-8.18965,15.16118l-22.48815,-11.40366c1.0399,2.20312 1.5596,4.53576 1.29999,6.99744c-0.26011,2.33266 -1.16995,4.66529 -2.60001,6.60883c-1.43006,1.94405 -3.50986,3.36944 -5.71971,4.14664c-2.20985,0.77773 -4.67981,1.03678 -7.01919,0.51865c-2.3399,-0.51865 -4.54976,-1.68446 -6.23991,-3.36944c-1.68964,-1.68446 -2.98964,-3.75752 -3.50986,-6.09017c-0.5197,-2.33266 -0.5197,-4.79483 0.26011,-6.99744c0.77979,-2.33266 2.20985,-4.27617 4.03007,-5.83163c1.68964,-1.42539 3.76944,-2.33213 6.10934,-2.59171l-20.66845,-10.49588l29.50786,-55.07322l56.6758,28.89749l-7.66945,14.25393c0,0 -3.37929,4.27617 -6.10934,1.29585c-1.43006,-1.94353 -3.1197,-3.75805 -5.06944,-5.18344c-1.43006,-0.90674 -3.12021,-1.55493 -4.80986,-1.94353c-1.68964,-0.25907 -3.50986,-0.25907 -5.1995,0.12953c-1.69016,0.38861 -3.24975,1.16632 -4.67981,2.20259c-1.43006,1.03678 -2.60001,2.33266 -3.50986,3.88758c-0.90985,1.55493 -1.43006,3.2399 -1.68964,4.92437c-0.26011,1.68446 0,3.49846 0.38963,5.18344c0.52021,1.68446 1.29999,3.23939 2.46996,4.53525c1.16995,1.29585 2.46996,2.46219 4.02954,3.23939c2.60001,0.90726 5.33006,1.42539 8.0596,1.55544l0.00004,0.00002l0,-0.00001z" clip-rule="evenodd" fill-rule="evenodd"/>
    </g>
   </g>
  </g>
  <g transform="rotate(-90 198.379 200.258)" stroke="null" id="svg_24">
   <path stroke="null" id="svg_27" fill="#2A2941" d="m212.34548,235.88269c3.697,0.68221 2.46467,5.7327 2.46467,5.7327l-8.62634,15.96959l-59.83481,-30.02847l31.08125,-58.00978l59.83536,30.43834l-8.07839,15.01396c0,0 -3.56002,4.50419 -6.43565,1.36496c-1.50631,-2.1836 -3.28604,-3.95842 -5.33975,-5.45982c-1.50631,-0.95509 -3.28604,-1.63784 -5.06633,-2.04716c-1.77974,-0.27288 -3.697,-0.27288 -5.47674,0.13644c-1.78028,0.40932 -3.42303,1.22851 -4.92934,2.32059c-1.50631,1.09153 -2.73864,2.45648 -3.697,4.09432c-0.95836,1.63838 -1.50576,3.41266 -1.77974,5.18694c-0.27397,1.77428 0,3.68554 0.41042,5.45982c0.54795,1.77428 1.36932,3.41212 2.60166,4.77707c1.23234,1.36496 2.60166,2.59347 4.24495,3.41266c3.01207,0.95509 5.8877,1.63784 8.6258,1.63784l0,0z" clip-rule="evenodd" fill-rule="evenodd"/>
   <path stroke="null" id="svg_26" fill="#32edbb" d="m219.32853,218.5476c3.697,0.68221 2.46467,5.7327 2.46467,5.7327l-8.62634,15.96959l-59.56084,-30.02847l31.08125,-58.00923l59.69783,30.43779l-8.07839,15.01396c0,0 -3.56002,4.50473 -6.4351,1.22851c-1.50631,-2.04716 -3.28604,-3.95842 -5.33975,-5.45982c-1.50631,-0.95509 -3.28659,-1.63784 -5.06633,-2.04716c-1.78028,-0.27288 -3.697,-0.27288 -5.47674,0.13644c-1.78028,0.40932 -3.42303,1.22851 -4.92934,2.32059c-1.50631,1.09207 -2.73864,2.45648 -3.697,4.09487c-0.95836,1.63784 -1.50631,3.41212 -1.77974,5.18639c-0.27397,1.77428 0,3.68554 0.41042,5.45982c0.41096,1.77428 1.36932,3.41212 2.60166,4.77707c1.23234,1.36496 2.60166,2.59347 4.24441,3.41266c2.73864,1.09153 5.61427,1.77428 8.48935,1.77428z" clip-rule="evenodd" fill-rule="evenodd"/>
   <path stroke="null" id="svg_25" fill="#2A2941" d="m215.9055,249.25827l12.18636,-22.65793l0,-0.95509c0.41042,-2.18415 0.41042,-4.50473 0,-6.82478c-0.41096,-1.77428 -1.36932,-3.41266 -2.73864,-4.77762c-1.36932,-1.22797 -3.14905,-2.1836 -4.92934,-2.45648c-1.23234,0 -2.73809,-0.40987 -3.97043,-0.54631c-0.82192,0 -1.6433,-0.27288 -2.46467,-0.54576c-0.82192,-0.40932 -1.50631,-1.09207 -1.91727,-1.77428c-0.5474,-0.68275 -0.95836,-1.5014 -1.23234,-2.32059c-0.27343,-0.81865 -0.27343,-1.77428 -0.13644,-2.59347c0.13644,-0.81865 0.41042,-1.77428 0.82138,-2.45648c0.41042,-0.81919 1.09535,-1.5014 1.77974,-1.91126c0.68493,-0.54576 1.50631,-0.95509 2.32768,-1.22851c0.82192,-0.27288 1.78028,-0.27288 2.60166,-0.13644c0.82138,0.13644 1.78028,0.40987 2.46467,0.81919c1.77974,0.95563 2.46467,2.72991 3.697,4.23131c1.50576,1.91072 3.697,3.00279 6.02469,3.41212c2.32768,0.27288 4.79181,-0.27288 6.70907,-1.5014c1.50576,-0.95509 2.87508,-2.1836 4.10742,-3.54856l0.41096,-0.54631l11.63841,-21.7023l-72.15816,-36.30694l-37.65388,69.74753l72.43214,36.58037zm3.42303,-30.71067c3.697,0.68221 2.46467,5.7327 2.46467,5.7327l-8.62634,15.96959l-59.56084,-30.02847l31.08125,-58.00978l59.69783,30.43834l-8.07839,15.01396c0,0 -3.55947,4.50419 -6.4351,1.36496c-1.50631,-2.04716 -3.28604,-3.95842 -5.33975,-5.45982c-1.50631,-0.95509 -3.28659,-1.63784 -5.06633,-2.04716c-1.77974,-0.27288 -3.697,-0.27288 -5.47674,0.13644c-1.78028,0.40932 -3.42303,1.22851 -4.92934,2.32004c-1.50631,1.09207 -2.73864,2.45703 -3.697,4.09487c-0.95836,1.63784 -1.50631,3.41266 -1.77974,5.18694c-0.27397,1.77428 0,3.685 0.41042,5.45982c0.54795,1.77428 1.36932,3.41212 2.60166,4.77707c1.23234,1.36496 2.60166,2.59347 4.24441,3.41212c2.73864,0.95563 5.61427,1.5014 8.48935,1.63838l0,0z" clip-rule="evenodd" fill-rule="evenodd"/>
  </g>
  <g stroke="null">
   <g stroke="null">
    <title stroke="null">Layer 1</title>
    <g stroke="null" id="svg_28">
     <g stroke="null" id="svg_29">
      <title stroke="null">Layer 1</title>
      <path stroke="null" fill-rule="evenodd" clip-rule="evenodd" d="m35.41661,185.89228c-2.40909,-0.53358 -4.68477,-1.73463 -6.42528,-3.60268c-1.73998,-1.73519 -2.94479,-4.00341 -3.48051,-6.40555c-0.53519,-2.40214 -0.40178,-4.93717 0.40178,-7.20591c0.80304,-2.26874 2.27569,-4.40359 4.28352,-5.87145c1.87391,-1.60126 4.28352,-2.53555 6.69313,-2.80232c2.40961,-0.26677 4.95315,0.13341 7.22883,1.20109c2.27569,1.06716 4.14959,2.80232 5.48834,4.80376c1.33876,2.13537 2.00783,4.53695 2.00783,6.9391c0,2.26874 -0.53519,4.53695 -1.73998,6.53892l21.95332,-9.60805l24.89865,59.51578l-60.10485,26.1552l-9.504,-23.08611c-0.66964,2.40214 -2.00836,4.53751 -3.88229,6.27215c-1.87391,1.73463 -4.14959,2.80232 -6.55921,3.2025c-2.40961,0.40018 -4.95315,0.13341 -7.36276,-0.66695c-2.27569,-0.93428 -4.41744,-2.40214 -5.88957,-4.40359c-1.47265,-2.00196 -2.40961,-4.40411 -2.67746,-6.80573c-0.26786,-2.53555 0.26786,-4.93769 1.33876,-7.20591c1.0709,-2.26874 2.81087,-4.13677 4.95263,-5.33787c2.14228,-1.33445 4.55137,-2.00196 7.09491,-2.00196c2.14176,0 4.28352,0.53411 6.29191,1.60126l-8.56759,-20.81681l23.55989,-10.40893l0,0.00003l-0.00001,0l0,0z" fill="#2A2941" id="svg_32"/>
      <path stroke="null" fill-rule="evenodd" clip-rule="evenodd" d="m42.24419,168.94495c-2.40961,-0.53411 -4.6853,-1.73519 -6.42583,-3.60324c-1.73998,-1.73463 -2.94479,-4.00341 -3.48051,-6.40555c-0.53519,-2.40162 -0.40126,-4.93717 0.40178,-7.20591c0.80304,-2.26822 2.27569,-4.40359 4.28352,-5.87145c1.87391,-1.60126 4.28352,-2.53555 6.69313,-2.80232c2.40961,-0.26677 4.95315,0.13341 7.22883,1.20109c2.27569,1.06769 4.14959,2.80232 5.48834,4.80376c1.33876,2.13537 2.00783,4.53751 2.00783,6.9391c0,2.13537 -0.66911,4.27018 -1.73998,6.27215l21.81992,-9.60805l24.89865,59.51578l-60.10485,26.1552l-9.77238,-22.81877c-0.93697,2.66892 -2.67694,4.93717 -4.95263,6.6718c-2.27569,1.60178 -5.08708,2.53555 -7.89795,2.53555c-3.48051,0 -6.82706,-1.33445 -9.23667,-3.86948c-2.40961,-2.40214 -3.88229,-5.73857 -3.88229,-9.20787c0,-3.46931 1.33876,-6.80573 3.88229,-9.20787c2.54301,-2.40162 5.7562,-3.86948 9.23667,-3.86948c2.14176,0 4.28352,0.53358 6.29135,1.60126l-8.56759,-20.81734l23.82831,-10.4084l0.00007,0.00003l-0.00001,-0.00001z" fill="#FFB800" id="svg_31"/>
      <path stroke="null" fill-rule="evenodd" clip-rule="evenodd" d="m16.1402,192.02945c-2.81087,0.66751 -5.48834,1.86856 -7.89795,3.73661c-2.27569,1.73463 -4.14959,4.00341 -5.48834,6.67232c-1.33876,2.66892 -2.14176,5.47128 -2.27569,8.40696c-0.13393,2.93573 0.40178,5.87145 1.47265,8.54037c1.0709,2.66892 2.81139,5.07054 4.95315,7.0725c2.14176,2.00144 4.68477,3.46931 7.49616,4.40359c2.81139,0.93428 5.7562,1.20109 8.70096,0.80088c2.94532,-0.4007 5.7562,-1.33445 8.1658,-2.80232l7.89795,19.21557l72.95597,-31.75931l-29.98573,-72.46026l-17.40195,7.60609c-1.20482,-4.80376 -4.15014,-8.94054 -8.1658,-11.87626c-4.14959,-2.80232 -9.10274,-4.00341 -14.0559,-3.46983c-4.95263,0.53411 -9.504,2.93625 -12.85058,6.53892c-3.34658,3.73661 -5.22101,8.40696 -5.35494,13.34466c0,4.13677 1.20482,8.13967 3.61444,11.47609l-18.74067,8.14019l6.96045,16.41322l0,0.00003l0.00001,0l0,0zm26.10343,-23.08555c-2.40909,-0.53411 -4.68477,-1.73463 -6.42528,-3.60324c-1.73998,-1.86804 -2.94479,-4.00341 -3.48051,-6.40499c-0.53519,-2.40214 -0.40126,-4.93769 0.40178,-7.20591c0.80304,-2.26874 2.27569,-4.40411 4.28352,-5.87197c1.87391,-1.60126 4.28352,-2.53499 6.69313,-2.80232c2.40961,-0.26677 4.95315,0.13341 7.22883,1.20109c2.27569,1.06769 4.14959,2.80232 5.48834,4.80429c1.33876,2.13481 2.00783,4.53695 2.00783,6.9391c-0.13393,2.13481 -0.66911,4.27018 -1.73998,6.27162l21.81992,-9.60805l24.89865,59.5163l-60.10485,26.15468l-9.77238,-22.81877c-0.93697,2.66892 -2.67694,4.93769 -4.95263,6.67232c-2.27569,1.60126 -5.08708,2.53555 -7.89847,2.53555c-3.47995,0 -6.82706,-1.33445 -9.23614,-3.87c-2.40961,-2.40214 -3.88229,-5.73805 -3.88229,-9.20787c0,-3.46931 1.33876,-6.80573 3.88229,-9.20735c2.40909,-2.40214 5.7562,-3.87 9.23614,-3.87c2.14228,0 4.28404,0.53358 6.29191,1.60126l-8.56759,-20.81734l23.82775,-10.4084l0.00003,0l-0.00001,0l0,0z" fill="#2A2941" id="svg_30"/>
     </g>
    </g>
   </g>
  </g>
  <path fill="#FAA2A2" d="m119.35258,124.9455l-1.1791,-2.626l-0.4265,-0.9753" clip-rule="evenodd" fill-rule="evenodd"/>
  <path transform="rotate(-92.5584 170.233 122.184)" stroke="null" id="svg_35" fill="#2A2941" d="m135.57321,147.69081l69.31908,-42.56348l-4.01697,-8.45047l-63.55366,39.14139l-1.74845,11.87255z" clip-rule="evenodd" fill-rule="evenodd"/>
  <path transform="rotate(31.0819 128.676 204.521)" stroke="null" id="svg_36" fill="#2A2941" d="m112.55525,221.46243l38.32671,-26.03922l-2.62562,-7.8428l-41.787,27.5296l6.08591,6.35242z" clip-rule="evenodd" fill-rule="evenodd"/>
  <path transform="rotate(-92.5584 156.379 125.334)" stroke="null" id="svg_37" fill="#2A2941" d="m127.07996,148.6161l62.7982,-38.11331l-4.01697,-8.45047l-62.98089,38.11331l4.19966,8.45047z" clip-rule="evenodd" fill-rule="evenodd"/>
  <path transform="rotate(-33.3498 88.8243 126.244)" stroke="null" id="svg_38" fill="#2A2941" d="m69.8766,143.79291l41.72748,-27.38688l-3.66546,-7.711l-41.89418,27.38688l3.83216,7.711z" clip-rule="evenodd" fill-rule="evenodd"/>
  <path transform="rotate(-33.3498 77.2934 122.252)" stroke="null" id="svg_39" fill="#2A2941" d="m52.02625,143.57128l53.80833,-33.29763l0.55813,-9.34181l-58.19862,34.92844l3.83216,7.711z" clip-rule="evenodd" fill-rule="evenodd"/>
  <path transform="rotate(31.0819 128.325 193.524)" stroke="null" id="svg_40" fill="#2A2941" d="m106.79557,213.04662l46.89095,-31.2018l-2.62562,-7.8428l-48.09749,31.33361l3.83216,7.71099z" clip-rule="evenodd" fill-rule="evenodd"/>
 </g>

</svg>