<svg xmlns="http://www.w3.org/2000/svg" width="128" height="128">
    <defs>
        <linearGradient id="a" x2="0" y1="16" y2="112" gradientUnits="userSpaceOnUse">
            <stop offset="0" stop-color="#ff8dbc"/>
            <stop offset=".4" stop-color="#7260ff"/>
            <stop offset=".6" stop-color="#7260ff"/>
            <stop offset="1" stop-color="#74c9ff"/>
        </linearGradient>
    </defs>
    <path fill="none" stroke="#000" stroke-opacity=".3" stroke-width="8" d="M20 68S8 68 8 56s16-12 16-12 0-32 28-32 28 24 28 24 10.08-16 24-8 4 24 4 24 12 0 12 8-8 8-8 8zm16 8a4 4 0 0 0 0 8h64a4 4 0 0 0 0-8zm-8 16a4 4 0 0 0 0 8h40a4 4 0 0 0 0-8zm56 0a4 4 0 0 0 0 8h20a4 4 0 0 0 0-8zm-40 16a4 4 0 0 0 0 8h40a4 4 0 0 0 0-8z"/>
    <path fill="url(#a)" d="M20 68S8 68 8 56s16-12 16-12 0-32 28-32 28 24 28 24 10.08-16 24-8 4 24 4 24 12 0 12 8-8 8-8 8zm16 8a4 4 0 0 0 0 8h64a4 4 0 0 0 0-8zm-8 16a4 4 0 0 0 0 8h40a4 4 0 0 0 0-8zm56 0a4 4 0 0 0 0 8h20a4 4 0 0 0 0-8zm-40 16a4 4 0 0 0 0 8h40a4 4 0 0 0 0-8z"/>
</svg>